# xmcd
#
# Track frame offsets: 
#        150
#        19546
#        37804
#        54787
#        70805
#        90700
#        106432
#        123383
#        141944
#        158446
#        173555
#
# Disc length: 2589 seconds
#
# Revision: 0
# Processed by: cddbd v1.5.2PL0 Copyright (c) Steve Scherf et al.
# Submitted via: ExactAudioCopy v1.0b3
#
DISCID=7d0a1b0b
DTITLE=Sabriu and Shyhrete - Një Herë Gabova
DYEAR=2013
DGENRE=Country
TTITLE0=Një Herë Gabova
TTITLE1=Sabri Fejzullahu - Dy Student
TTITLE2=Shyhrete Behluli - Kur Lidhen dy Zemra
TTITLE3=Sabri Fejzullahu - E Jeta shkon
TTITLE4=Shyhrete Behluli - Pse
TTITLE5=Sabri Fejzullahu - Beso Mos Beso
TTITLE6=Shyhrete Behluli - Dasma Kosovare
TTITLE7=Sabri Fejzullahu - Një Fotografi
TTITLE8=Shyhrete Behluli - Knaqu Rini
TTITLE9=Sabri Fejzullahu - Kur Dashnija
TTITLE10=Shyhrete Behluli - Ma të Miraë me u Ba
EXTD=
EXTT0=
EXTT1=
EXTT2=
EXTT3=
EXTT4=
EXTT5=
EXTT6=
EXTT7=
EXTT8=
EXTT9=
EXTT10=
PLAYORDER=
